<svg xmlns="http://www.w3.org/2000/svg" viewBox="0 0 959 593" width="190" height="118"><style>.state { fill:rgb(233, 238, 244); stroke:#646464; stroke-width:1; stroke-opacity:1; } .territory { opacity:0; fill:rgb(233, 238, 244); stroke:#646464; stroke-width:1; stroke-opacity:1; } .territoryborder { opacity:0; fill:none; stroke:#A9A9A9; stroke-width:2; } .border { opacity:1; fill:none; stroke:#A9A9A9; stroke-width:2; } .circle { opacity:1; fill:rgb(0, 158, 228); stroke:rgb(0, 158, 228); stroke-width:1; }</style><g id="hi"><title>Hawaii</title><path class="state hi" d="M233.088 519.31l1.94-3.557 2.263-.323.324.808-2.102 3.07h-2.424zm10.184-3.72l6.143 2.588 2.102-.323 1.617-3.88-.647-3.395-4.203-.485-4.042 1.778-.97 3.718zm30.716 10.024l3.718 5.497 2.425-.323 1.133-.485 1.454 1.294 3.72-.162.97-1.455-2.91-1.78-1.94-3.717-2.103-3.557-5.82 2.91-.646 1.778zm20.207 8.892l1.294-1.94 4.687.97.647-.485 6.143.647-.324 1.294-2.586 1.456-4.365-.324-5.497-1.616zm5.335 5.173l1.94 3.88 3.072-1.133.323-1.617-1.617-2.1-3.718-.324v1.293zm6.952-1.133l2.263-2.91 4.688 2.425 4.365 1.132 4.365 2.748v1.94l-3.557 1.778-4.85.97-2.424-1.455-4.85-6.628zm16.65 15.52l1.617-1.294 3.394 1.617 7.598 3.557 3.395 2.1 1.617 2.426 1.94 4.365 4.04 2.586-.322 1.294-3.88 3.233-4.203 1.456-1.456-.647-3.072 1.778-2.424 3.233-2.264 2.91-1.778-.16-3.557-2.588-.324-4.526.647-2.425-1.617-5.657-2.1-1.778-.163-2.587 2.263-.97 2.102-3.072.485-.97-1.617-1.778-.323-2.1z" id="HI"/></g><g id="ak"><title>Alaska</title><path class="state ak" d="M158.077 453.675l-.324 85.357 1.617.97 3.072.162 1.455-1.132h2.586l.162 2.91 6.95 6.79.486 2.586 3.396-1.94.647-.16.323-3.073 1.455-1.616 1.133-.163 1.94-1.455 3.07 2.102.648 2.91 1.94 1.13 1.132 2.426 3.88 1.778 3.395 5.982 2.748 3.88 2.264 2.748 1.454 3.718 5.01 1.778 5.174 2.102.97 4.365.485 3.072-.97 3.395-1.778 2.264-1.617-.808-1.455-3.07-2.748-1.456-1.778-1.132-.81.808 1.456 2.75.162 3.717-1.132.484-1.94-1.94-2.1-1.293.484 1.617 1.293 1.78-.808.807s-.808-.324-1.293-.97c-.486-.647-2.103-3.395-2.103-3.395l-.97-2.264s-.323 1.293-.97.97c-.647-.324-1.293-1.455-1.293-1.455l1.778-1.94-1.455-1.454v-5.012h-.808l-.81 3.395-1.13.484-.97-3.718-.648-3.718-.808-.485.323 5.658v1.133l-1.455-1.294-3.556-5.982-2.102-.485-.646-3.718-1.617-2.91-1.616-1.132v-2.263l2.102-1.293-.485-.324-2.586.647-3.395-2.425-2.587-2.91-4.85-2.587-4.04-2.586 1.292-3.233v-1.618l-1.778 1.617-2.91 1.13-3.72-1.13-5.657-2.426h-5.496l-.647.485-6.466-3.88-2.1-.324-2.75-5.82-3.556.323-3.556 1.454.485 4.527 1.13-2.91.97.324-1.454 4.365 3.233-2.75.646 1.617-3.88 4.365-1.294-.323-.485-1.94-1.292-.81-1.293 1.132-2.75-1.778-3.07 2.1-1.78 2.103-3.393 2.102-4.69-.163-.484-2.102 3.72-.646v-1.295l-2.265-.646.97-2.426 2.264-3.88v-1.778l.16-.81 4.366-2.262.97 1.293h2.748l-1.292-2.586-3.718-.322-5.012 2.748-2.425 3.395-1.778 2.587-1.13 2.263-4.205 1.455-3.07 2.587-.325 1.617 2.264.97.807 2.1-2.748 3.233-6.468 4.204-7.76 4.203-2.1 1.13-5.336 1.133-5.335 2.263 1.78 1.294-1.455 1.455-.485 1.13-2.75-.97-3.232.163-.808 2.263h-.97l.323-2.424-3.556 1.294-2.91.97-3.395-1.294-2.91 1.94H46.37l-2.103 1.293-1.616.808-2.1-.324-2.588-1.13-2.263.645-.97.97-1.617-1.132v-1.94l3.07-1.293 6.306.646 4.364-1.615 2.1-2.102 2.91-.647 1.78-.808 2.748.162 1.616 1.293.97-.323 2.264-2.75 3.07-.97 3.396-.645L69 559.4l.648.486h.808l1.294-3.718 4.04-1.455 1.94-3.718 2.264-4.526 1.617-1.456.324-2.587-1.616 1.293-3.395.647-.647-2.425-1.293-.323-.97.97-.162 2.91-1.454-.163-1.455-5.82-1.292 1.293-1.132-.485-.323-1.94-4.04.162-2.103 1.132-2.587-.325 1.455-1.454.485-2.586-.646-1.94 1.455-.97 1.293-.162-.647-1.778V526.1l-.97-.97-.808 1.454h-6.143l-1.455-1.293-.647-3.88-2.1-3.555v-.97l2.1-.81.162-2.1 1.132-1.132-.81-.485-1.293.485-1.132-2.748.97-5.012 4.527-3.233 2.586-1.617 1.94-3.718 2.75-1.293 2.585 1.132.323 2.425 2.425-.325 3.235-2.425 1.616.647.97.647h1.618l2.263-1.294.81-4.365s.323-2.91.97-3.394c.646-.484.97-.97.97-.97l-1.132-1.94-2.587.81-3.232.807-1.94-.485L69 484.714l-5.01-.162-3.557-3.718.485-3.88.647-2.425-2.102-1.78-1.94-3.717.485-.808 6.79-.485H66.9l.97.97h.646l-.16-1.617 3.88-.647 2.585.324 1.456 1.13-1.455 2.103-.484 1.455 2.748 1.616 5.012 1.78 1.778-.97-2.263-4.366-.97-3.233.97-.81-3.394-1.94-.485-1.13.486-1.617-.808-3.88-2.91-4.688-2.425-4.203 2.91-1.94h3.233l1.778.647 4.204-.162 3.718-3.557 1.13-3.07 3.72-2.426 1.616.97 2.748-.648 3.72-2.1 1.13-.163.97.807 4.527-.16 2.748-3.073h1.132l3.556 2.425 1.94 2.1-.485 1.132.647 1.132 1.616-1.617 3.88.324.325 3.72 1.94 1.454 7.113.646 6.304 4.204 1.455-.97 5.173 2.586 2.102-.646 1.94-.81 4.85 1.94 4.365 2.91zM42.974 482.612l2.102 5.335-.162.97-2.91-.323-1.778-4.042-1.78-1.455h-2.424l-.16-2.586 1.777-2.424 1.13 2.425 1.456 1.456 2.748.646zm-2.587 33.464l3.72.81 3.717.97.808.97-1.617 3.717-3.07-.162-3.396-3.555-.163-2.75zm-20.692-14.064l1.13 2.586 1.133 1.617-1.132.808-2.1-3.07v-1.94h.97zm-13.742 73.07l3.395-2.263 3.395-.97 2.587.323.485 1.616 1.94.484 1.94-1.94-.324-1.616 2.75-.647 2.91 2.588-1.132 1.778-4.365 1.132-2.748-.485-3.718-1.132-4.365 1.456-1.617.323-1.132-.647zm48.984-4.526l1.616 1.94 2.102-1.617-1.455-1.294-2.263.97zm2.91 3.072l1.13-2.264 2.103.324-.808 1.94h-2.425zm23.602-1.94l1.454 1.778.97-1.132-.808-1.94-1.617 1.294zm8.73-12.448l1.13 5.82 2.91.808 5.012-2.91 4.365-2.587-1.617-2.423.485-2.425-2.1 1.293-2.91-.808 1.615-1.132 1.94.808 3.88-1.778.485-1.455-2.425-.808.81-1.94-2.75 1.94-4.688 3.556-4.85 2.91-1.293 1.132zm42.354-19.885l2.425-1.454-.97-1.778-1.78.97.324 2.263z" id="AK"/></g><g id="fl"><title>Florida</title><path d="M759.817 439.143l2.265 7.318 3.73 9.744 5.335 9.376 3.718 6.305 4.85 5.496 4.04 3.72 1.618 2.91-1.132 1.293-.807 1.293 2.91 7.436 2.91 2.91 2.586 5.335 3.556 5.82 4.526 8.244 1.294 7.6.485 11.962.647 1.78-.323 3.393-2.425 1.294.322 1.94-.646 1.94.323 2.423.484 1.94-2.748 3.234-3.072 1.455-3.88.16-1.455 1.618-2.425.97-1.294-.485-1.13-.97-.324-2.91-.808-3.395-3.395-5.173-3.556-2.263-3.88-.324-.808 1.294-3.073-4.365-.647-3.558-2.586-4.04-1.78-1.133-1.615 2.1-1.78-.323-2.1-5.01-2.91-3.88-2.91-5.336-2.587-3.07-3.557-3.718 2.102-2.425 3.233-5.497-.16-1.616-4.527-.97-1.617.646.324.647 2.586.97-1.455 4.526-.807.485-1.778-4.04-1.294-4.85-.322-2.75 1.455-4.687v-9.537l-3.072-3.72-1.292-3.07-5.173-1.293-1.94-.647-1.617-2.587-3.394-1.616-1.132-3.395-2.748-.97-2.425-3.718-4.204-1.455-2.91-1.455h-2.587l-4.042.808-.162 1.94.808.97-.485 1.132-3.072-.162-3.718 3.557-3.557 1.94h-3.88l-3.233 1.293-.323-2.748-1.617-1.94-2.91-1.132-1.616-1.455-8.083-3.88-7.598-1.778-4.364.647-5.982.484-5.98 2.1-3.48.614-.238-8.05-2.587-1.94-1.777-1.778.323-3.07 10.185-1.295 25.543-2.91 6.79-.646 5.436.28 2.585 3.88 1.455 1.454 8.1.515 10.818-.648 21.513-1.293 5.446-.675 5.108.204.427 2.91 2.234.808.235-4.63-1.53-4.173 1.31-1.44 5.554.454 5.173.323zm12.545 132.405l2.425-.647 1.293-.24 1.455-2.345 2.344-1.617 1.293.485 1.697.323.404 1.05-3.475 1.214-4.205 1.455-2.344 1.212-.888-.89zm13.5-5.012l1.21 1.05 2.75-2.1 5.334-4.204 3.72-3.88 2.504-6.628.97-1.697.162-3.395-.728.485-.97 2.83-1.455 4.607-3.234 5.254-4.365 4.203-3.393 1.94-2.506 1.536z" id="FL" class="state fl"/></g><g id="nh"><title>New Hampshire</title><path d="M880.8 142.425l.868-1.077 1.09-3.29-2.543-.914-.485-3.072-3.88-1.13-.323-2.75-7.275-23.44-4.6-14.543-.898-.007-.647 1.617-.647-.485-.97-.97-1.454 1.94-.05 5.032.313 5.667 1.94 2.75v4.04l-3.72 5.063-2.586 1.13v1.133l1.13 1.778v8.568l-.807 9.215-.16 4.85.968 1.294-.16 4.527-.486 1.78.968.708 16.787-4.424 2.175-.603 1.844-2.772 3.605-1.613z" id="NH" class="state nh"/></g><g id="MI" class="state mi"><title>Michigan</title><path d="M697.86 177.237l-3.233-8.245-2.263-9.053-2.425-3.234-2.588-1.778-1.616 1.13-3.88 1.78-1.94 5.01-2.748 3.72-1.132.646-1.455-.647s-2.586-1.455-2.424-2.1c.162-.648.485-5.013.485-5.013l3.396-1.293.808-3.394.647-2.586 2.426-1.617-.324-10.023-1.616-2.263-1.293-.81-.81-2.1.81-.808 1.616.322.16-1.617-2.424-2.263-1.293-2.587h-2.587l-4.526-1.455-5.497-3.394h-2.748l-.647.646-.97-.485-3.07-2.263-2.91 1.778-2.91 2.264.322 3.556.97.323 2.102.485.485.81-2.587.807-2.586.323-1.455 1.78-.325 2.1.324 1.617.322 5.496-3.556 2.102-.647-.162v-4.203l1.292-2.425.647-2.425-.81-.808-1.94.808-.97 4.203-2.748 1.132-1.778 1.94-.162.97.647.808-.648 2.587-2.263.485v1.13l.808 2.426-1.132 6.144-1.617 4.042.646 4.688.485 1.132-.807 2.425-.324.81-.324 2.747 3.556 5.98 2.91 6.468 1.455 4.85-.808 4.688-.97 5.98-2.426 5.174-.323 2.75-3.258 3.084 4.41-.16 21.417-2.264 7.277-.988.096 1.667 6.852-1.213 10.298-1.503 3.855-.462.138-.587.16-1.454 2.103-3.718 2-1.738-.223-5.052 1.597-1.597 1.09-.342.223-3.557 1.536-3.03 1.05.607.162.646.808.162 1.94-.97-.323-9.538z" id="MI-"/><path d="M581.62 82.06l1.828-2.06 2.172-.8 5.373-3.885 2.286-.572.456.457-5.144 5.144-3.315 1.944-2.057.914-1.6-1.143zm86.174 32.127l.646 2.506 3.234.162 1.293-1.213s-.08-1.455-.404-1.616c-.324-.162-1.617-1.86-1.617-1.86l-2.182.243-1.617.16-.323 1.132.97.485zm-100.302-2.974l.716-.58 2.75-.81 3.555-2.262v-.97l.647-.645 5.98-.97 2.426-1.94 4.365-2.102.163-1.293 1.94-2.91 1.778-.808 1.294-1.78 2.263-2.262 4.365-2.425 4.688-.485 1.132 1.132-.323.97-3.72.97-1.455 3.07-2.263.81-.485 2.425-2.425 3.233-.323 2.586.807.485.97-1.13 3.557-2.91 1.293 1.293h2.263l3.234.97 1.455 1.132 1.453 3.07 2.75 2.75 3.88-.162 1.453-.97 1.617 1.293 1.617.485 1.293-.807h1.132l1.616-.97 4.043-3.557 3.395-1.13 6.628-.325 4.526-1.94 2.587-1.292 1.454.162v5.658l.485.323 2.91.81 1.938-.485 6.144-1.617 1.13-1.132 1.456.485v6.953l3.233 3.07 1.295.648 1.293.97-1.293.324-.81-.323-3.717-.484-2.1.647-2.265-.162-3.233 1.456h-1.778l-5.82-1.293-5.173.16-1.94 2.588-6.952.647-2.425.81-1.132 3.07-1.292 1.132-.485-.163-1.455-1.616-4.527 2.426h-.645l-1.132-1.617-.808.16-1.94 4.365-.97 4.042-3.18 7-1.178-1.034-1.372-1.03-1.94-10.29-3.545-1.37-2.053-2.285-12.12-2.744-2.855-1.03-8.23-2.172-7.89-1.143-3.72-5.147z" id="SP-"/></g><g id="vt"><title>Vermont</title><path d="M844.484 154.058l.317-5.346-2.89-10.784-.646-.323-2.91-1.293.808-2.91-.808-2.102-2.7-4.64.97-3.88-.81-5.173-2.424-6.466-.805-4.922 26.42-6.732.308 5.522 1.916 2.743v4.042l-3.708 5.058-2.587 1.143-.01 1.12 1.31 1.52-.312 8.098-.61 9.26-.227 5.556.97 1.294-.162 4.57-.485 1.69 1.014.727-7.438 1.507-4.502.724z" id="VT" class="state vt"/></g><g id="me"><title>Maine</title><path d="M922.84 78.83l1.94 2.102 2.263 3.718v1.94l-2.102 4.69-1.94.645-3.393 3.072-4.85 5.496h-1.294c-.646 0-.97-2.1-.97-2.1l-1.778.16-.97 1.455-2.425 1.455-.97 1.455 1.617 1.455-.485.647-.485 2.748-1.94-.162v-1.616l-.323-1.294-1.455.324-1.78-3.233-2.1 1.293 1.292 1.455.324 1.13-.81 1.295.325 3.07.162 1.618-1.616 2.586-2.91.485-.324 2.91-5.334 3.07-1.294.486-1.616-1.455-3.072 3.557.97 3.234-1.455 1.294-.16 4.365-1.124 6.258-2.462-1.156-.485-3.07-3.88-1.133-.324-2.75-7.275-23.44-4.697-14.64 1.42-.118 1.514.41v-2.587l1.308-4.496 2.587-4.69 1.455-4.04-1.94-2.426v-5.98l.808-.97.808-2.75-.16-1.454-.163-4.85 1.778-4.85 2.91-8.89 2.102-4.204h1.293l1.293.16v1.133l1.294 2.262 2.748.647.808-.81v-.97l4.042-2.91 1.778-1.778 1.455.162 5.982 2.425 1.94.97 9.053 29.906h5.982l.808 1.94.162 4.85 2.91 2.263h.808l.162-.486-.485-1.132 2.748-.16zm-20.932 30.148l1.536-1.536 1.374 1.05.566 2.426-1.698.89-1.778-2.83zm6.71-5.9l1.777 1.86s1.294.08 1.294-.244c-.002-.323.24-2.02.24-2.02l.89-.81-.808-1.777-2.02.727-1.375 2.264z" id="ME" class="state me"/></g><g id="ri"><title>Rhode Island</title><path d="M874.07 178.895l-3.696-14.956 6.27-1.846 2.19 1.927 3.307 4.322 2.69 4.402-3 1.625-1.294-.163-1.13 1.778-2.426 1.94-2.91.97z" id="RI" class="state ri"/></g><g id="ny"><title>New York</title><path d="M830.38 188.746l-1.132-.97-2.587-.162-2.262-1.94-1.63-6.13-3.46.09-2.443-2.707-19.385 4.382-43.002 8.73-7.53 1.227-.738-6.468 1.428-1.127 1.294-1.13.97-1.618 1.778-1.132 1.94-1.778.485-1.617 2.1-2.748 1.133-.97-.162-.97-1.293-3.07-1.778-.163-1.94-6.143 2.91-1.778 4.365-1.455 4.04-1.293 3.234-.485 6.305-.16 1.94 1.292 1.616.162 2.1-1.294 2.588-1.13 5.173-.486 2.1-1.778 1.78-3.234 1.616-1.94h2.102l1.94-1.13.162-2.264-1.455-2.102-.324-1.455 1.132-2.102v-1.453h-1.778l-1.78-.81-.807-1.13-.162-2.587 5.82-5.496.647-.81 1.455-2.91 2.91-4.525 2.748-3.72 2.1-2.424 2.417-1.826 3.08-1.246 5.497-1.293 3.234.163 4.527-1.455 7.565-2.07.52 4.978 2.425 6.467.808 5.173-.97 3.88 2.587 4.526.808 2.102-.808 2.91 2.91 1.293.646.323 3.072 10.993-.536 5.06-.485 10.83.807 5.498.808 3.557 1.455 7.275v8.083l-1.13 2.263 1.838 1.993.797 1.68-1.94 1.778.323 1.293 1.293-.322 1.456-1.294 2.263-2.586 1.13-.647 1.618.648 2.263.16 7.922-3.878 2.91-2.75 1.293-1.454 4.204 1.617-3.396 3.557-3.88 2.91-7.113 5.334-2.586.97-5.82 1.94-4.04 1.132-1.176-.533-.244-3.69.485-2.747-.162-2.102-2.814-1.7-4.526-.97-3.88-1.13-3.72-1.778z" id="NY" class="state ny"/></g><g id="pa"><title>Pennsylvania</title><path d="M825.124 224.692l1.308-.27 2.33-1.254 1.212-2.483 1.616-2.264 3.233-3.07v-.808l-2.425-1.617-3.556-2.425-.97-2.586-2.748-.324-.162-1.13-.808-2.75 2.263-1.13.162-2.426-1.295-1.293.162-1.616 1.94-3.072v-3.07l2.698-2.647-.92-.675-2.525-.193-2.294-1.94-1.55-6.116-3.505.102-2.454-2.704-18.09 4.198-43.003 8.73-8.89 1.455-.622-6.52-5.36 5.067-1.295.485-4.202 3.01 2.91 19.136 2.483 9.73 3.57 19.26 3.27-.637 11.944-1.5 37.927-7.666 14.876-2.824 8.3-1.622.268-.238 2.102-1.617 2.102-.68z" id="PA" class="state pa"/></g><path d="M829.68 188.46l-2.323 2.734v3.072l-1.94 3.072-.162 1.616 1.294 1.293-.163 2.425-2.263 1.132.808 2.748.162 1.132 2.748.323.97 2.587 3.556 2.425 2.425 1.615v.81l-2.983 2.695-1.617 2.263-1.455 2.75-2.263 1.292-.462 1.602-.243 1.213-.61 2.607 1.093 2.244 3.234 2.91 4.85 2.264 4.04.647.163 1.455-.81.97.325 2.75h.808l2.1-2.426.81-4.85 2.748-4.043 3.073-6.466 1.13-5.495-.646-1.132-.16-9.376-1.618-3.395-1.132.808-2.75.323-.484-.485 1.132-.97 2.102-1.94.063-1.093-.384-3.434.574-2.747-.118-1.97-2.807-1.75-5.092-1.176-4.138-1.38-3.586-1.647z" id="NJ" class="state nj"/><path d="M825.626 228.28l.368-2.148.375-1.69-1.624.397-1.615.466-2.205 1.765 1.72 5.044 2.263 5.658 2.102 9.7 1.616 6.304 5.012-.16 6.142-1.182-2.264-7.386-.97.485-3.557-2.425-1.78-4.688-1.94-3.557-3.146-2.87-.864-2.098.366-1.616z" id="DE" class="state de"/><path d="M839.792 252.415l-6.01 1.204-5.142.116-1.843-6.922-1.925-9.17-2.573-6.188-1.29-4.398-7.505 1.622-14.876 2.823-37.453 7.55 1.132 5.013.97 5.658.322-.323 2.1-2.424 2.265-2.618 2.425-.615 1.455-1.455 1.778-2.587 1.293.648 2.91-.324 2.587-2.1 2.006-1.455 1.847-.485 1.644 1.13 2.91 1.454 1.94 1.778 1.213 1.535 4.123 1.698v2.91l5.496 1.294 1.145.542 1.41-2.028 2.883 1.97-1.278 2.482-.765 3.985-1.778 2.587v2.102l.645 1.778 5.064 1.356 4.31-.062 3.072.97 2.102.323.97-2.102-1.455-2.102v-1.778l-2.426-2.102-2.102-5.496 1.293-5.335-.16-2.102-1.295-1.293s1.455-1.617 1.455-2.263c0-.647.485-2.102.485-2.102l1.94-1.293 1.94-1.617.485.97-1.455 1.617-1.293 3.718.323 1.132 1.78.323.484 5.496-2.102.97.323 3.558.485-.162 1.132-1.94 1.616 1.78-1.616 1.292-.323 3.395 2.585 3.395 3.88.485 1.617-.81 3.236 4.184 1.358.537 6.654-2.797 2.008-4.024-.436-4.908zm-15.97 9.028l1.132 2.506.16 1.778 1.133 1.86s.89-.89.89-1.214c0-.323-.728-3.07-.728-3.07l-.73-2.346-1.858.485z" id="MD" class="state md"/><path d="M831.64 266.07l-.145-1.948 6.453-2.55-.77 3.218-2.92 3.78-.418 4.585.462 3.39-1.828 4.978-2.165 1.917-1.47-4.64.445-5.45 1.587-4.183.767-3.098zm3.34 28.3l-58.175 12.576-37.427 5.28-6.678-.376-2.586 1.926-7.34.22-8.38.978-10.916 1.615 10.47-5.612-.014-2.075 1.52-2.146 10.554-11.502 3.947 4.478 3.783.964 2.543-1.14 2.24-1.312 2.535 1.344 3.914-1.43 1.876-4.555 2.6.54 2.856-2.132 1.8.494 2.827-3.677.347-2.083-.964-1.275 1.003-1.867 5.274-12.277.617-5.735 1.23-.524 2.178 2.442 3.936-.3 1.93-7.575 2.794-.56 1.05-2.74 2.58-2.348 2.77-5.697.086-5.067 9.822 3.823c.68.34.832-5.05.832-5.05l3.653 1.598.068 2.938 5.785 1.3 2.132 1.176 1.66 2.055-.654 3.65-1.948 2.59.11 2.06.59 1.852 4.978 1.267 4.45.04 3.07.96 1.944.308.714 3.09 3.19.4.87 1.2-.44 4.69 1.374 1.104-.48 1.93 1.23.79-.22 1.384-2.695-.095.09 1.614 2.28 1.543.12 1.412 1.774 1.785.49 2.524-2.552 1.38 1.572 1.494 5.8-1.686 3.61 6.012z" id="VA" class="state va"/><path d="M761.186 238.967l1.112 4.945 1.083 6.03 2.13-2.58 2.264-3.07 2.54-.616 1.454-1.455 1.778-2.586 1.445.647 2.91-.322 2.588-2.102 2.006-1.453 1.846-.485 1.304 1.016 3.643 1.822 1.94 1.778 1.374 1.293-.76 5.555-5.836-2.54-4.245-1.623-.102 5.177-2.748 5.537-2.53 2.427-1.192 2.75-2.643.5-.898 3.602-1.044 3.95-3.968.34-2.324-2.438-1.07.56-.632 5.47-1.35 3.533-4.96 10.955.898 1.16-.206 1.91-2.81 3.884-1.807-.544-2.968 2.16-2.543-.573-2 4.555s-3.258 1.43-3.922 1.368c-.16-.016-2.47-1.25-2.47-1.25l-2.336 1.38-2.41 1.044-3.744-.89-1.12-1.167-2.194-3.024-3.142-1.988-1.712-3.623-4.285-3.468-.646-2.263-2.586-1.455-.808-1.618-.243-5.254 2.183-.08 1.94-.81.16-2.747 1.618-1.454.162-5.012.97-3.88 1.293-.646 1.292 1.132.485 1.778 1.778-.97.485-1.617-1.13-1.777v-2.425l.97-1.293 2.262-3.395 1.293-1.455 2.102.485 2.263-1.617 3.072-3.395 2.263-3.88.323-5.658.485-5.01v-4.69l-1.132-3.07.97-1.456 1.285-1.293 3.49 19.828 4.632-.75 12.43-1.8z" id="WV" class="state wv"/><path d="M735.325 193.328l-6.094 4.054-3.878 2.263-3.395 3.718-4.042 3.88-3.233.808-2.91.486-5.496 2.587-2.102.16-3.395-3.07-5.174.647-2.587-1.455-2.382-1.35-4.892.702-10.185 1.617-11.206 2.185 1.294 14.63 1.778 13.74 2.586 23.44.566 4.832 4.123-.13 2.426-.807 3.363 1.503 2.07 4.365 5.14-.018 1.89 2.12 1.762-.066 2.538-1.343 2.504.372 5.422.482 1.727-2.133 2.345-1.294 2.07-.68.647 2.747 1.78.97 3.474 2.344 2.182-.08 1.333-.493.185-2.762 1.585-1.455.1-4.792 1.023-4.11 1.3-.6 1.32 1.147.54 1.697 1.718-1.038.44-1.46-1.118-1.904.067-2.315.75-1.072 2.15-3.305 1.052-1.544 2.1.486 2.264-1.616 3.073-3.395 2.77-4.08.322-5.055.485-5.01-.177-5.308-.955-2.895.35-1.19 1.806-1.75-2.29-9.047-2.91-19.362z" id="OH" class="state oh"/><path d="M619.57 299.97l.065-2.857.485-4.527 2.263-2.91 1.778-3.88 2.588-4.203-.485-5.82-1.778-2.748-.324-3.233.81-5.496-.485-6.952-1.294-16.004-1.292-15.358-.97-11.72 3.07.89 1.456.97 1.13-.324 2.103-1.94 2.83-1.617 5.092-.16 21.985-2.264 5.576-.533 1.504 15.956 4.25 36.84.6 5.772-.372 2.263 1.228 1.796.097 1.373-2.522 1.6-3.54 1.55-3.2.55-.6 4.868-4.574 3.314-2.796 4.01.324 2.377-.582 1.535h-3.326l-1.586-1.616-2.493 1.26-2.682 1.504.162 3.054-1.194.258-.468-1.018-2.167-1.503-3.25 1.342-1.55 3.006-1.438-.808-1.455-1.6-4.465.485-5.593.97-2.91 1.55z" id="IN" class="state in"/><path d="M619.54 300.342l.033-3.23.567-4.645 2.333-2.916 1.866-4.075 2.232-3.995-.37-5.253-2.006-3.542-.097-3.347.694-5.27-.825-7.178-1.068-15.777-1.293-15.018-.923-11.64-.273-.92-.808-2.587-1.293-3.718-1.617-1.778-1.455-2.587-.233-5.49-45.796 2.6.23 2.372 2.286.685.914 1.144.458 1.83 3.886 3.428.686 2.286-.686 3.43-1.83 3.657-.685 2.515-2.287 1.83-1.83.685-5.257 1.372-.686 1.828-.686 2.057.686 1.372 1.83 1.6-.23 4.116-1.83 1.6-.685 1.6v2.744l-1.83.457-1.6 1.143-.228 1.372.23 2.057-1.716 1.314-1.027 2.802.457 3.658 2.286 7.316 7.316 7.544 5.487 3.658-.23 4.344.915 1.372 6.4.457 2.745 1.373-.686 3.658-2.286 5.945-.686 3.2 2.286 3.887 6.4 5.26 4.574.684 2.057 5.03 2.057 3.2-.914 2.973 1.6 4.114 1.83 2.058 1.413-.88.908-2.076 2.213-1.747 2.13-.615 2.604 1.18 3.628 1.375 1.19-.298.2-2.26-1.29-2.41.305-2.377 1.84-1.348 3.02-.81 1.262-.458-.612-1.388-.792-2.355 1.434-.98 1.157-3.215z" id="IL" class="state il"/><path d="M874.068 178.863l-3.677-14.88-4.718.92-21.23 4.744 1 3.226 1.456 7.275.177 8.967-1.22 2.175 1.92 1.932 4.273-3.906 3.556-3.233 1.94-2.1.808.645 2.748-1.455 5.174-1.13 7.794-3.18z" id="CT" class="state ct"/><path d="M615.066 197.37l-.067-3.16-1.18-4.525-.647-6.143-1.13-2.425.97-3.072.807-2.91 1.455-2.586-.647-3.396-.646-3.557.485-1.778 1.94-2.426.16-2.748-.807-1.293.647-2.587-.453-4.17 2.748-5.66 2.91-6.788.162-2.264-.323-.97-.808.485-4.203 6.304-2.75 4.042-1.94 1.778-.807 2.263-1.955.808-1.132 1.94-1.455-.323-.16-1.778 1.293-2.425 2.1-4.69 1.78-1.616.99-2.358-2.56-1.9-1.975-10.368-3.547-1.342-1.946-2.308-12.13-2.722-2.875-1.012-8.214-2.167-7.918-1.16-3.765-5.13-.75.554-1.2-.16-.645-1.132-1.334.296-1.132.162-1.778.97-.97-.647.646-1.94 1.94-3.072 1.132-1.132-1.94-1.455-2.102.81-2.91 1.94-7.436 3.233-2.91.646-2.91-.486-.98-.878-2.118 2.835-.23 2.745v8.46l-1.142 1.6-5.258 3.886-2.286 5.945.457.23 2.515 2.056.686 3.202-1.83 3.2v3.887l.458 6.63 2.972 2.97h3.43l1.828 3.202 3.43.457 3.886 5.715 7.088 4.115 2.057 2.744.915 7.43.686 3.315 2.286 1.6.228 1.37-2.057 3.43.228 3.2 2.515 3.888 2.515 1.143 2.972.458 1.343 1.38 45.298-2.67z" id="WI" class="state wi"/><path d="M834.982 294.316l2.085 4.917 3.556 6.466 2.425 2.424.647 2.263-2.425.162.808.646-.323 4.203-2.587 1.292-.647 2.102-1.292 2.91-3.718 1.616-2.425-.323-1.455-.162-1.616-1.293.323 1.293v.97h1.94l.808 1.294-1.94 6.303h4.203l.647 1.617 2.263-2.263 1.294-.485-1.94 3.556-3.072 4.85h-1.293l-1.132-.485-2.748.647-5.173 2.425-6.467 5.334-3.395 4.688-1.94 6.466-.484 2.425-4.69.484-5.452 1.337-9.946-8.202-12.61-7.598-2.91-.808-12.61 1.455-4.276.75-1.616-3.233-2.97-2.117-16.49.485-7.275.808-9.053 4.527-6.143 2.586-21.177 2.587.5-4.055 1.778-1.455 2.748-.646.647-3.718 4.203-2.75 3.88-1.454 4.203-3.556 4.364-2.102.647-3.07 3.88-3.88.647-.163s0 1.133.808 1.133c.81 0 1.94.323 1.94.323l2.264-3.556 2.1-.647 2.263.323 1.617-3.556 2.91-2.587.485-2.1.187-3.65 4.277-.022 7.198-.855 15.757-2.252 15.136-2.087 21.64-4.72 19.985-4.258 11.177-2.406 5.05-1.156zm4.27 33.206l2.587-2.506 3.15-2.586 1.537-.647.16-2.02-.645-6.144-1.455-2.345-.647-1.86.728-.24 2.748 5.495.404 4.446-.162 3.395-3.395 1.536-2.83 2.425-1.13 1.214-1.05-.162z" id="NC" class="state nc"/><g id="dc"><title>Washington, D.C.</title><path class="state dc" d="M805.82 250.844l-1.86-1.824-1.23-.687 1.442-2.022 2.89 1.95-1.243 2.584z" id="DC"/></g><path d="M899.623 173.254l2.172-.686.458-1.715 1.028.115 1.03 2.286-1.257.457-3.887.115.457-.57zm-9.373.8l2.286-2.63h1.6l1.83 1.487-2.4 1.03-2.173 1.03-1.143-.916zm-34.8-21.988l17.648-4.64 2.263-.647 1.915-2.797 3.737-1.663 2.89 4.412-2.426 5.174-.323 1.455 1.94 2.587 1.13-.808h1.78l2.263 2.585 3.88 5.982 3.556.485 2.263-.97 1.78-1.778-.81-2.75-2.1-1.615-1.456.807-.97-1.293.484-.485 2.102-.163 1.778.808 1.94 2.425.97 2.91.323 2.425-4.203 1.455-3.88 1.94-3.88 4.526-1.94 1.455v-.97l2.425-1.454.484-1.778-.808-3.07-2.91 1.454-.808 1.455.485 2.263-2.067 1-2.747-4.527-3.396-4.365-2.07-1.812-6.534 1.876-5.092 1.05-20.675 4.593-.668-4.768.647-10.59 4.29-.888 6.79-1.294z" id="MA" class="state ma"/><path d="M696.678 318.254l-51.893 5.012-15.76 1.778-4.62.513-3.87-.028-.22 4.1-8.186.264-6.952.646-8.09-.124-1.415 7.073-1.696 5.48-3.293 2.75-1.35 4.38-.322 2.588-4.042 2.263 1.455 3.558-.97 4.364-.968.79 108.158-10.407.404-3.955 1.81-1.49 2.834-.75.672-3.717 4.098-2.705 4.047-1.494 4.085-3.57 4.436-2.026.522-3.067 4.065-3.984.55-.114s.032 1.13.84 1.13c.808 0 1.94.356 1.94.356l2.263-3.588 2.07-.647 2.276.296 1.598-3.534 2.955-2.644.42-1.94.31-3.71-2.147-.2-2.6 2.028-6.995.03-18.36 2.386-8.06 1.908z" id="TN" class="state tn"/><path d="M593.825 343.053l-3.98.717-5.112-.634.42-1.602 2.98-2.567.944-3.656-1.83-2.97-78.417 2.513 1.6 6.86v8.23l1.372 10.973.23 37.837 2.285 1.944 2.972-1.372 2.743 1.143.68 6.573 55.62-1.14 1.147-2.09-.287-3.55-1.825-2.97 1.598-1.486-1.598-2.512.684-2.51 1.368-5.605 2.518-2.063-.686-2.284 3.658-5.372 2.744-1.37-.114-1.492-.345-1.826 2.857-5.6 2.403-1.255.384-3.428 1.77-1.24-3.144-.486-1.34-4.01 2.803-2.376.55-2.02 1.28-4.046 1.065-3.255z" id="AR" class="state ar"/><path d="M558.44 248.113l-2.52-3.087-1.143-2.286-64.357 2.4-2.286.115 1.257 2.514-.227 2.286 2.514 3.886 3.087 4.115 3.086 2.744 2.16.23 1.498.914v2.972l-1.83 1.6-.456 2.287 2.058 3.43 2.514 2.97 2.515 1.83 1.37 11.66.315 36.072.23 4.687.456 5.383 22.434-.867 23.206-.685 20.805-.8 11.654-.232 2.17 3.427-.685 3.308-3.088 2.403-.572 1.837 5.378.457 3.895-.685 1.718-5.494.65-5.857 2.1-2.555 2.595-1.486.052-3.05 1.016-1.937-1.694-2.543-1.33.984-1.993-2.227-1.284-4.758.8-2.52-1.943-3.426-1.83-4.576-4.8-.8-6.97-5.598-1.718-4.114.8-3.2 2.058-6.058.46-2.864-1.95-1.03-6.855-.8-1.028-1.71-.112-4.23-5.487-3.432-6.974-7.772-2.287-7.316-.23-4.225.8-2.287z" id="MO" class="state mo"/><path d="M672.292 355.552v2.182l.162 2.102.647 3.395 3.395 7.922 2.425 9.86 1.455 6.144 1.617 4.85 1.455 6.952 2.1 6.304 2.588 3.395.485 3.395 1.94.81.162 2.1-1.78 4.85-.484 3.233-.16 1.94 1.615 4.365.324 5.335-.81 2.425.648.808 1.455.808.205 3.218 2.233 3.35 2.25 2.162 7.92.162 10.82-.647 21.514-1.292 5.445-.675 4.578.028.16 2.91 2.588.81.323-4.366-1.616-4.526 1.13-1.617 5.82.81 4.978.317-.775-6.298 2.263-10.024 1.455-4.204-.484-2.586 3.335-6.244-.51-1.352-1.913.704-2.587-1.293-.646-2.1-1.294-3.557-2.263-2.102-2.587-.645-1.616-4.85-2.925-6.335-4.204-1.94-2.102-1.94-1.293-2.586-2.1-1.94-2.264-1.294-2.263-2.91-3.072-2.263-4.525-1.778-.485-1.456-2.425-2.91-.485-1.455-3.395-4.97-3.52.098-3.755-2.356-1.418-1.294-.323-1.778.87-1.94 2.226-1.11-.634-2.097-41.87 4.99z" id="GA" class="state ga"/><path d="M764.943 408.165l-1.777.97-2.586-1.294-.647-2.1-1.293-3.557-2.264-2.102-2.586-.645-1.617-4.85-2.748-5.982-4.203-1.94-2.102-1.94-1.293-2.586-2.102-1.94-2.263-1.293-2.263-2.91-3.073-2.263-4.526-1.778-.484-1.455-2.425-2.91-.484-1.454-3.395-5.174-3.394.16-4.04-2.424-1.295-1.293-.322-1.778.808-1.94 2.264-.97-.51-2.29 5.767-2.336 9.115-4.59 7.775-.808 16.115-.423 2.638 1.877 1.68 3.358 4.3-.61 12.61-1.455 2.91.808 12.61 7.598 10.108 8.122-5.42 5.458-2.587 6.144-.484 6.304-1.617.81-1.133 2.747-2.425.647-2.1 3.557-2.75 2.748-2.263 3.395-1.617.808-3.557 3.395-2.91.162.97 3.233-5.01 5.497-2.103 1.293z" id="SC" class="state sc"/><path d="M725.994 295.27l-2.293 2.402-3.577 3.994-4.925 5.465-1.215 1.717-.063 2.1-4.38 2.166-5.658 3.394-7.232 1.8-51.868 4.898-15.76 1.778-4.62.513-3.87-.028-.226 4.22-8.18.145-6.95.647-7.988-.06 1.208-1.32 2.5-1.54.228-3.202.914-1.83-1.606-2.538.8-1.907 2.265-1.778 2.1-.647 2.75 1.294 3.556 1.293 1.132-.323.16-2.264-1.292-2.425.323-2.263 1.94-1.455 2.587-.646 1.616-.648-.81-1.778-.645-1.94 1.506-.996c.004-.037 1.255-3.522 1.24-3.658l3.053-1.478 5.32-.97 4.493-.485 1.393 1.627 1.527.87 1.59-3.107 3.188-1.283 2.205 1.484.41 1 1.174-.265-.16-2.953 3.13-1.75 2.148-1.073 1.53 1.66 3.317-.043.586-1.57-.367-2.264 2.6-4 4.776-3.437.706-4.836 2.925-.456 3.79-1.644 2.445-1.71-.2-1.563-1.14-1.455.565-2.995 4.185-.118 2.3-.746 3.347 1.428 2.053 4.365 5.132.01 2.05 2.21 1.617-.148 2.6-1.28 5.238.575 2.575.217 1.688-2.056 2.618-1.425 1.883-.707.646 2.837 2.043 1.058 2.643 2.083.117 5.673.808 1.57 2.59 1.558.773 2.294 4.16 3.437 1.805 3.622 2.456 1.66z" id="KY" class="state ky"/><path d="M631.306 460.416l-1.49-14.322-2.748-18.752.16-14.065.81-31.04-.162-16.65.165-6.42 44.486-3.618-.148 2.18.16 2.103.648 3.395 3.395 7.92 2.426 9.862 1.455 6.143 1.617 4.85 1.455 6.952 2.102 6.304 2.586 3.394.485 3.395 1.94.807.162 2.102-1.778 4.85-.486 3.232-.162 1.94 1.617 4.365.322 5.335-.808 2.425.646.808 1.455.808.328 2.89-5.597-.355-6.79.647-25.542 2.91-10.412 1.407-.22 2.877 1.777 1.777 2.586 1.94.58 7.936-5.542 2.573-2.748-.324 2.748-1.94v-.97l-3.07-5.98-2.264-.648-1.455 4.365-1.294 2.747-.645-.16h-2.75z" id="AL" class="state al"/><path d="M607.967 459.16l-3.285-3.165 1.01-5.5-.66-.893-9.263 1.006-25.03.46-.683-2.395.913-8.456 3.316-5.946 5.03-8.69-.573-2.398 1.256-.68.458-1.953-2.286-2.057-.112-1.943-1.83-4.345-.147-6.34-55.474.925.027 9.574.686 9.373.686 3.887 2.514 4.115.914 5.03 4.344 5.486.23 3.2.685.686-.686 8.46-2.97 5.03 1.6 2.057-.687 2.513-.686 7.316-1.37 3.2.12 3.617 4.688-1.52 12.113.206 10.346 3.557 6.467 1.132 3.72-1.455 3.232 1.13 3.233.97.81-2.1-3.235-1.132-2.586.485-2.748-1.617s.16-1.293.808-1.455c.647-.16 3.07-.97 3.07-.97l1.78 1.455 1.778-.97 3.233.647 1.455 2.425.323 2.263 4.527.324 1.778 1.778-.808 1.616-1.293.81 1.616 1.615 8.407 3.558 3.556-1.293.97-2.425 2.587-.647 1.778-1.455 1.294.97.808 2.91-2.263.808.646.647 3.395-1.293 2.264-3.395.808-.485-2.1-.324.807-1.616-.163-1.455 2.102-.485 1.13-1.293.647.808s-.16 3.07.647 3.07c.808 0 4.203.648 4.203.648l4.042 1.94.968 1.455h2.91l1.132.97 2.263-3.072v-1.455h-1.293l-3.395-2.747-5.82-.808-3.233-2.263 1.132-2.75 2.263.325.162-.647-1.78-.97v-.485h3.234l1.778-3.07-1.293-1.94-.325-2.75-1.455.162-1.94 2.102-.646 2.585-3.072-.646-.97-1.78 1.778-1.94 1.904-3.445-1.06-2.412-1.167-3.982z" id="LA" class="state la"/><path d="M631.56 459.345l-.255 1.256h-5.174l-1.454-.808-2.1-.323-6.79 1.94-1.78-.81-2.586 4.204-1.102.778-1.124-2.488-1.143-3.887-3.43-3.2 1.145-5.545-.686-.914-1.83.228-7.918.874-24.547.373-.77-2.225.874-8.377 3.116-5.672 5.227-9.145-.446-2.433 1.237-.656.436-1.92-2.318-2.078-.115-2.142-1.835-4.12-.11-5.964 1.328-2.48-.223-3.416-1.77-3.083 1.527-1.48-1.57-2.5.456-1.653 1.578-6.526 2.486-2.036-.642-2.367 3.658-5.302 2.832-1.356-.22-1.677-.29-1.68 2.877-5.568 2.345-1.232.15-.893 37.345-3.88.185 6.282.16 16.65-.807 31.04-.162 14.065 2.748 18.752 1.485 13.395z" id="MS" class="state ms"/><path d="M569.192 199.584l.264 2.787 2.224.578.954 1.225.5 1.855 3.792 3.36.686 2.39-.674 3.425-1.582 3.232-.8 2.742-2.172 1.602-1.716.57-5.58 1.86-1.39 3.85.728 1.372 1.84 1.683-.282 4.036-1.763 1.54-.77 1.642.126 2.776-1.886.457-1.625 1.105-.28 1.353.28 2.115-1.55 1.116-2.472-3.133-1.262-2.45-65.735 2.516-.918.165-2.053-4.515-.228-6.63-1.6-4.115-.687-5.26-2.287-3.656-.914-4.802-2.745-7.544-1.143-5.373-1.372-2.172-1.6-2.743 1.954-4.844 1.372-5.716-2.744-2.057-.457-2.744.915-2.515h1.714l82.654-1.27.835 4.183 2.252 1.56.256 1.424-2.028 3.39.19 3.205 2.515 3.798 2.527 1.294 3.08.502.658.832z" id="IA" class="state ia"/><path d="M475.238 128.824l-.457-8.46-1.828-7.315-1.83-13.49-.457-9.83-1.83-3.43-1.6-5.03V70.984l.687-3.887-1.82-5.45 30.13.034.325-8.245.646-.16 2.264.484 1.94.807.808 5.496 1.455 6.143 1.616 1.617h4.85l.323 1.455 6.304.323v2.103h4.85l.323-1.293 1.132-1.132 2.262-.647 1.294.97h2.91l3.88 2.588 5.334 2.425 2.425.485.485-.97 1.455-.485.485 2.91 2.586 1.293.485-.485 1.295.163v2.1l2.586.97h3.073l1.616-.807 3.233-3.233 2.586-.485.808 1.778.484 1.293h.97l.97-.81 8.892-.322 1.778 3.07h.647l.712-1.083 4.44-.37-.612 2.28-3.94 1.836-9.244 4.062-4.775 2.007-3.07 2.585-2.426 3.557-2.263 3.88-1.777.808-4.527 5.012-1.293.16-4.328 2.758-2.463 3.205-.228 3.192.094 8.043-1.376 1.69-5.08 3.76-2.23 5.98 2.87 2.235.68 3.227-1.855 3.24.17 3.747.37 6.73 3.028 3h3.33l1.89 3.134 3.38.503 3.858 5.672 7.088 4.115 2.144 2.876.67 6.44-81.21 1.145-.34-35.677-.456-2.972-4.115-3.43-1.143-1.828v-1.6l2.057-1.6 1.372-1.373.228-3.2z" id="MN" class="state mn"/><path d="M380.343 320.82l-16.684-1.272-.88 10.953 20.464 1.157 32.056 1.304-2.335 24.42-.457 17.832.228 1.6 4.344 3.66 2.058 1.142.686-.23.686-2.057 1.37 1.83h2.06v-1.372l2.742 1.37-.457 3.888 4.115.23 2.515 1.142 4.115.686 2.515 1.83 2.287-2.058 3.43.686 2.514 3.43h.914v2.285l2.286.686 2.287-2.287 1.83.686h2.513l.915 2.514 6.302 2.08 1.372-.687 1.83-4.115h1.142l1.143 2.057 4.114.685 3.658 1.372 2.972.914 1.83-.913.685-2.515h4.343l2.058.915 2.744-2.058h1.143l.686 1.6h4.115l1.6-2.058 1.83.457 2.057 2.514 3.2 1.83 3.202.913 1.94 1.12-.388-37.218-1.373-10.975-.16-8.872-1.44-6.538-.78-7.18-.067-3.816-12.137.318-46.41-.457-45.04-2.057-24.29-1.372z" id="OK" class="state ok"/><path d="M361.464 330.574l22.69 1.086 31.094 1.143-2.335 23.455-.297 18.154.068 2.082 4.344 3.818 1.987 1.447 1.184-.56.373-1.818 1.14 1.804 2.11.043-.002-1.448 1.67.968 1.14.41-.36 3.966 4.09.094 2.924 1.197 3.955.525 2.38 2.08 2.125-2.077 3.725.615 2.22 3.225 1.075.32-.16 1.966 2.214.793 2.33-2.054 2.132.614 2.23.035.932 2.434 6.328 2.115 1.593-.768 1.49-4.178h.34l.907.082 1.23 2.068 3.93.666 3.336 1.123 3.426 1.196 1.84-.976.714-2.515 4.453.043 1.81.93 2.8-2.106 1.103.044.85 1.607h4.055l1.52-2.03 1.867.408 1.946 2.403 3.52 2.045 2.86.81 1.514.8 2.446 1.997 3.043-1.328 2.692 1.14.563 6.105-.04 9.702.686 9.533.703 3.605 2.675 4.42.898 4.95 4.216 5.538.196 3.145.746.787-.73 8.38-2.872 5.007 1.533 2.153-.63 2.338-.67 7.404-1.505 3.337.295 3.502-5.665 1.585-9.86 4.526-.97 1.94-2.588 1.94-2.1 1.456-1.294.808-5.66 5.335-2.747 2.1-5.335 3.234-5.657 2.425-6.304 3.394-1.78 1.455-5.82 3.555-3.394.647-3.88 5.496-4.042.323-.97 1.94 2.264 1.94-1.455 5.498-1.294 4.526-1.132 3.88-.81 4.527.81 2.426 1.778 6.95.97 6.144 1.778 2.748-.97 1.455-3.07 1.94-5.66-3.88-5.496-1.13-1.293.484-3.233-.647-4.204-3.072-5.173-1.13-7.598-3.396-2.1-3.88-1.295-6.466-3.233-1.94-.647-2.264.646-.646.323-3.395-1.294-.646-.647-.97 1.293-4.364-1.617-2.264-3.234-1.293-3.395-4.365-3.555-6.628-4.204-2.586.163-1.94-5.335-12.287-.808-4.203-1.778-1.94-.162-1.455-5.98-5.335-2.588-3.072v-1.132l-2.586-2.1-6.79-1.132-7.437-.646-3.072-2.264-4.527 1.78-3.555 1.454-2.263 3.233-.97 3.718-4.365 6.143-2.425 2.425-2.587-.97-1.778-1.13-1.94-.647-3.88-2.264v-.647l-1.778-1.94-5.174-2.102-7.436-7.758-2.264-4.69v-8.082l-3.233-6.466-.485-2.748-1.617-.97-1.13-2.102-5.012-2.1-1.293-1.618-7.113-7.92-1.293-3.235-4.69-2.262-1.454-4.365-2.587-2.91-1.94-.484-.65-4.68 8.002.687 29.035 2.743 29.035 1.6 2.233-19.46 3.887-55.556 1.6-18.748 1.372.03m99.03 229.662l-.566-7.113-2.75-7.194-.564-7.032 1.535-8.244 3.313-6.87 3.476-5.416 3.15-3.557.648.243-4.77 6.63-4.364 6.546-2.02 6.627-.324 5.173.89 6.143 2.586 7.194.485 5.173.163 1.455-.89.243z" id="TX" class="state tx"/><path d="M288.153 424.013l-.776-4.748 8.644.525 30.173 2.946 27.268 1.69 2.216-18.707 3.857-55.877 1.738-19.39 1.573.13.825-11.164-104.004-10.637-17.498 120.435 15.46 1.99 1.294-10.024 29.233 2.83z" id="NM" class="state nm"/><path d="M507.88 324.38l-12.618.205-46.09-.458-44.556-2.057-24.63-1.258 3.894-64.595 22.083.676 40.29.84 44.3.99h5.096l2.184 2.16 2.017-.02 1.642 1.012-.063 3.01-1.83 1.725-.332 2.232 1.843 3.402 2.953 3.195 2.328 1.614 1.3 11.24.19 36.086z" id="KS" class="state ks"/><path d="M486.098 240.7l3.23 7.02-.128 2.303 3.46 5.494 2.718 3.152h-5.05l-43.482-.94-40.787-.89-22.253-.784 1.073-21.327-32.318-2.922 4.344-44.01 15.546 1.03 20.12 1.142 17.83 1.143 23.778 1.144 10.745-.458 2.058 2.286 4.8 2.972 1.144.914 4.344-1.372 3.888-.457 2.743-.228 1.83 1.37 4.057 1.602 2.972 1.6.457 1.6.914 2.058h1.83l.798.046.894 4.683 2.92 8.468.573 3.758 2.524 3.774.568 5.114 1.608 4.24.252 6.475z" id="NE" class="state ne"/><path d="M476.447 204.025l-.048-.58-2.896-4.847 1.86-4.712 1.493-5.886-2.782-2.08-.385-2.743.792-2.555 3.19.015-.124-5.006-.334-30.173-.618-3.768-4.072-3.332-.982-1.676-.063-1.61 2.02-1.53 1.533-1.664.245-2.657-58.257-1.6-54.798-3.45-5.325 63.693 14.59.903 19.95 1.206 17.743.93 23.777 1.302 11.982-.424 1.966 2.245 5.194 3.253.764.723 4.542-1.452 6.54-.615 1.676 1.336 4.204 1.595 2.945 1.636.4 1.485 1.04 2.24 2.237-.2z" id="SD" class="state sd"/><path d="M475.305 128.918l-.615-8.433-1.677-6.816-1.89-13.025-.458-10.987-1.74-3.078-1.756-5.194.03-10.444.623-3.824-1.834-5.468-28.643-.564-18.59-.647-26.513-1.294-22.947-2.134-6.993 67.177 54.932 3.343 58.07 1.385z" id="ND" class="state nd"/><path d="M360.377 143.276L253.634 129.82l-14.083 88.457 113.265 13.585 7.562-88.586z" id="WY" class="state wy"/><path d="M369.21 56.97l-30.675-2.81-29.26-3.555-29.26-4.042-32.333-5.335-18.43-3.394L196.53 30.9l-4.48 21.348 3.43 7.545-1.372 4.572 1.83 4.573 3.2 1.372 4.62 10.77 2.695 3.176.458 1.143 3.43 1.142.457 2.057-7.087 17.603v2.515l2.515 3.2h.914l4.8-2.97.686-1.144 1.6.686-.228 5.258 2.743 12.574 2.973 2.515.915.686 1.83 2.286-.458 3.428.685 3.43 1.144.914 2.285-2.286h2.743l3.2 1.6 2.516-.914h4.115l3.657 1.6 2.743-.457.458-2.972 2.972-.686 1.372 1.372.457 3.2 1.425.834 1.887-11.035 106.745 13.428 8.803-86.3z" id="MT" class="state mt"/><path d="M380.032 320.965l4.904-86.325-113.39-12.644-12.213 87.94 120.7 11.03z" id="CO" class="state co"/><path d="M148.48 176.484l8.77-35.22 1.37-4.23 2.516-5.944-1.257-2.287-2.516.115-.8-1.03.457-1.142.344-3.087 4.458-5.488 1.83-.457 1.142-1.143.572-3.2.914-.687 3.887-5.83 3.886-4.343.23-3.773-3.43-2.63-1.536-4.4 13.625-63.342 13.518 2.528-4.408 21.383 3.56 7.484-1.58 4.66 1.97 4.642 3.137 1.255 3.834 9.558 3.513 4.437.507 1.143 3.34 1.143.37 2.098-6.97 17.376-.166 2.566 2.63 3.322.906-.05 4.91-3.024.68-1.095 1.56.658-.277 5.355 2.74 12.583 3.917 3.178 1.68 2.165-.716 4.085 1.066 2.808 1.062 1.09 2.48-2.35 2.848.048 2.92 1.337 2.78-.682 3.793-.16 3.98 1.6 2.742-.297.496-3.038 2.933-.764 1.26 1.515.44 2.946 1.424 1.214-8.386 53.608s-87.966-16.7-94.96-18.204z" id="ID" class="state id"/><path d="M259.498 310.105l-83.75-11.872 20.59-112.542 46.78 8.747-1.486 10.63-2.31 13.173 7.807.928 16.405 1.805 8.21.856-12.247 88.275z" id="UT" class="state ut"/><path d="M144.91 382.63l-2.626 2.157-.323 1.455.486.97 18.914 10.67 12.125 7.598 14.71 8.568 16.813 10.023 12.287 2.426 24.95 2.705 17.256-119.126-83.734-11.918-3.093 16.413-1.606.014-1.715 2.63-2.514-.115-1.258-2.744-2.743-.343-.915-1.143h-.914l-.915.57-1.943 1.03-.114 6.973-.23 1.715-.57 12.574-1.487 2.172-.572 3.315 2.743 4.914 1.26 5.83.8 1.03 1.028.57-.115 2.287-1.6 1.372-3.43 1.715-1.943 1.943-1.486 3.658-.57 4.916-2.86 2.743-2.057.686.136.83-.457 1.714.457.8 3.658.572-.57 2.743-1.487 2.172-3.772.914z" id="AZ" class="state az"/><path d="M196.393 185.576l-23.64 128.822-1.83.35-1.574 2.406-2.374.01-1.472-2.743-2.62-.378-.77-1.107-1.037-.054-2.78 1.645-.31 6.786-.36 5.778-.35 8.593-1.447 2.09-2.44-1.074-69.078-104.202 18.99-67.584 93.09 20.666z" id="NV" class="state nv"/><path d="M148.722 175.532l8.85-34.802 1.05-4.23 2.355-5.623-.616-1.163-2.514-.046-1.28-1.67.456-1.465.503-3.246 4.46-5.487 1.828-1.1 1.143-1.143 1.486-3.565 4.047-5.67 3.564-3.862.23-3.45-3.27-2.47-1.783-4.643-12.663-3.612-15.09-3.543-15.43.114-.458-1.372-5.488 2.058-4.46-.572-2.4-1.6-1.256.686-4.687-.23-1.716-1.37-5.258-2.058-.8.114-4.344-1.486-1.944 1.83-6.172-.344-5.945-4.115.687-.8.23-7.773-2.287-3.887-4.115-.572-.686-2.514-2.355-.466-5.8 2.06-2.262 6.465L61.3 78.93 58.067 85.4l-5.012 14.063-6.466 13.58-8.084 12.61-1.94 2.91-.81 8.567.387 12.08 112.58 26.322z" id="OR" class="state or"/><path d="M102.073 7.612l4.365 1.455 9.7 2.748 8.568 1.94 20.046 5.658 22.955 5.658 15.224 3.208L169.3 91.864l-12.445-3.525-15.508-3.572-15.23.033-.455-1.343-5.6 2.18-4.594-.738-2.147-1.585-1.315.658-4.735-.14-1.7-1.35-5.262-2.112-.735.148-4.39-1.525-1.892 1.818-6.265-.298-5.926-4.126.778-.932.122-7.678-2.282-3.84-4.116-.607-.677-2.51-2.276-.458-3.556 1.23-2.263-3.22.325-2.91 2.748-.322 1.616-4.042-2.587-1.13.16-3.72 4.366-.646-2.75-2.748-1.454-7.113.647-2.91v-7.92l-1.778-3.234 2.263-9.376 2.1.485 2.426 2.91 2.75 2.586 3.232 1.94 4.526 2.103 3.072.647 2.91 1.454 3.395.97 2.262-.16v-2.426l1.293-1.132 2.102-1.293.323 1.132.323 1.778-2.263.485-.323 2.1 1.778 1.456 1.132 2.425.646 1.94 1.455-.162.162-1.294-.97-1.293-.485-3.232.808-1.78-.646-1.453V20.22l1.778-3.555-1.132-2.587-2.425-4.85.324-.808 1.13-.808zm-9.456 5.98l2.02-.163.485 1.373 1.536-1.616h2.344l.808 1.535-1.535 1.698.646.808-.726 2.02-1.374.405s-.89.08-.89-.242c0-.323 1.456-2.586 1.456-2.586l-1.698-.566-.323 1.455-.728.647-1.535-2.264-.485-2.505z" id="WA" class="state wa"/><g id="ca"><title>California</title><path d="M144.694 382.198l3.94-.488 1.487-2.012.545-2.94-3.55-.59-.516-.67.477-2.032-.16-.59 1.923-.62 3.043-2.832.582-4.995 1.38-3.403 1.943-2.166 3.52-1.59 1.653-1.604.07-2.108-.994-.58-1.023-1.073-1.155-5.85-2.685-4.83.566-3.504-2.42-1.028-69.062-104.178 18.902-67.602-67.08-15.698-1.507 4.733-.162 7.437-5.172 11.8-3.07 2.588-.325 1.13-1.778.81-1.455 4.203-.808 3.233 2.748 4.203 1.617 4.204 1.13 3.557-.322 6.467-1.778 3.072-.647 5.818-.97 3.72 1.778 3.88 2.75 4.525 2.262 4.85 1.293 4.04-.323 3.235-.323.485v2.1l5.658 6.306-.485 2.424-.647 2.263-.647 1.94.162 8.245 2.102 3.718 1.94 2.586 2.748.485.97 2.75-1.132 3.556-2.1 1.617h-1.133l-.808 3.88.485 2.91 3.233 4.364 1.616 5.335 1.454 4.688 1.294 3.072 3.394 5.82 1.455 2.586.485 2.91 1.617.97v2.425l-.81 1.94-1.778 7.113-.485 1.94 2.425 2.748 4.204.485 4.526 1.777 3.88 2.102h2.91l2.91 3.07 2.586 4.85 1.132 2.263 3.88 2.102 4.85.808 1.454 2.102.647 3.233-1.454.647.323.97 3.233.808 2.748.162 3.16-1.687 3.88 4.203.81 2.264 2.586 4.203.323 3.234v9.377l.484 1.778 10.023 1.455 19.722 2.748 13.844 1.35zM56.56 338.48l1.293 1.537-.162 1.294-3.232-.08-.566-1.213-.647-1.455 3.314-.08zm1.94 0l1.212-.645 3.556 2.1 3.072 1.214-.89.646-4.526-.243-1.617-1.617-.808-1.455zm20.692 19.805l1.778 2.344.808.97 1.536.565.566-1.455-.97-1.778-2.667-2.02-1.05.16v1.213zm-1.455 8.65l1.778 3.15 1.213 1.94-1.455.244-1.294-1.214s-.728-1.455-.728-1.86v-2.18l.485-.082z" id="CA" class="state ca"/></g><g id="pr"><title>Puerto Rico</title><path id="PR" class="territory pr" d="M569.216 530.23l.858-2.14 1.713.428 1.713 1.285 7.284.857 7.284-.43h3l2.57.858 1.714-1.285h2.142l5.14.428 5.142 1.286 1.715 1.715h3l.427 2.572-.428 1.713-3.428.43-2.143.855-.858 2.142-1.285 2.143-2.57 1.285h-5.143-4.283l-2.14-.857h-4.285l-2.143-.856-3.428.856H576.5l-2.142-1.713-2.57.857-3.43.428-.427-2.143.858-1.285.856-2.142-.856-2.57-3.427-2.572 1.286-.857 2.57-1.285zm46.712 11.576l-1.86.62 3.718 1.238 4.956-1.24 1.24-1.857-3.098.62-4.956.62zm8.673-4.337l-1.548-.93 2.168-1.55.62 1.55-1.24.93z"/></g><g id="vi"><title>U.S. Virgin Islands</title><path id="VI" class="territory vi" d="M645.38 524.068l-1.458 1.095-1.824 1.093.365 1.46 1.823.728 2.554-.365 1.093 1.824h1.823l1.094-1.094 4.012-.73 1.823-.365 1.46-1.095-.73-1.457h-2.187l-5.107-1.095h-4.74zm14.453 1.4l-.284.994.852.497 1.994-.25 1.424.746 1.138-.25.286-1.242 1.423-.992.285-.993-1.14-.497-1.708.496-1.994-.744-.853.743-.286.992-1.137.497zm-5.305 20.42l2.607-.65 1.63.325 2.28-1.303.978.326.65.977.977 1.63 1.954-.978.978.65 4.27-.587.486 2.43-1.823.763h-3.257l-5.54 1.63-2.28-.323-3.91.65-1.302-.65-.977.65-2.61.328s-1.536-.498-.324-1.306c1.954-1.303.978-3.584.978-3.584l4.234-.977z"/></g><g id="gu"><title>Guam</title><path id="GU" class="territory gu" d="M584.942 560.61h.126c.428 0 .84.14 1.26.21.55.092.795.752 1.26.945.493.206.637.637 1.006.945.108.09.216.27.252.315.724.603-.755 1.18.88.84.038-.01 1.298.48 1.513.524.617.128 1.286.11 1.762.21.6.124-.605.9-.882 1.363-.26.436-.126 1.088-.126 1.575 0 .613-.133.968-.252 1.364-.143.48-.458.802-.755 1.05-.314.26-.902.53-1.385.63-.646.134-.594.524-1.512.524-.438 0-.498 1.04-.63 1.26-.382.638-1.134.003-1.384.84-.163.542-.498.52-.882.84-.36.3-.903.48-1.26.63-.608.252-.986.523-1.762.523-.308 0-.897.926-1.008 1.05-.37.41-.54.66-.88.944-.152.125-1.19-.094-1.638 0-.066.013 0 1.432 0 1.574 0 .247-.822.635-.882.735-.115.19.252 1.243.252 1.574 0 .516-.017 1.107-.126 1.47-.144.48-.124 1.05-.755 1.05-.66 0 .365.828.503.943.22.184.176 1.11.252 1.365.206.687-.378.925-.378 1.47 0 .034-1.015.58-1.133.63-.362.15-.696.578-1.008.84-.482.4-.584.59-1.008.943-.414.345-1 .314-1.637.42-.584.097-1.076.21-1.763.21-.385 0-.892-.64-1.133-.84-.544-.453-.712.25-1.007-.734-.028-.094-.408-.838-.504-1.155-.17-.568-.124-.937-.252-1.365-.112-.374-.49-.586-.63-1.05-.16-.536-.082-1.08-.378-1.574-.303-.505-.88-.31-.88-1.154 0-.72.34-.78.628-1.26.198-.328.4-.91.504-1.26.105-.35.554-.922.756-1.258.05-.083-.126-.428-.126-.63l-3.15-2.414c.557-.926.69-.592 1.64 0 .514.323.932.33 1.51.21.475-.1.447-1.26.447-.268 0 .73-.168-.11.507-.315 1.164-.352 1.053-.287.052.27-.225.124 1.053.47.755-.526-.157-.52-1.012.014-.756-.84.093-.313 1.918.086 2.014.106.546.114.948-.63 1.51-.63.55 0 1.234-.21 1.89-.21.486 0 1.377-.234 1.763-.315.776-.16 1.12-.2 1.637-.525.356-.222-.22-1.363-.252-1.47-.163-.543 1.744-.002 1.763 0 .813.137.905-.706 1.008-1.048.204-.68.31-.865 1.007-1.155.77-.32 1.008-.812 1.008-1.47 0-.984.435-1.29.63-2.098.147-.615-.145-.786.377-1.366.55-.612.945-.84 1.26-1.364.283-.473.25-.87.25-1.47 0-.553.157-.605-.377-1.05"/></g><g id="mp"><title>Northern Mariana Islands</title><path id="MP" class="territory mp" d="M644.48 558.693l1.075-.72.9-.598-1.975 1.318zm.08 5.558l1.977 1.978-.175-1.872-1.802-.105zm4.61 5.93l1.32 3.295 1.317-3.294h-2.637zm5.27 6.588v3.294l1.977.66.66-3.295-2.636-.66zm8.648 8.44l-1.73 3.088.576 1.853 2.883 1.234 1.153-1.853v-3.088l-2.882-1.233z"/></g><g id="as"><title>American Samoa</title><path id="AS" class="territory as" d="M609.497 582.5c.224-.102.55-.645.702-.924.258-.47-.252-.564.39-.71.317-.073.678.405.78.497.248.226.41.43.546-.07.056-.204.706-.91.937-1.067.306-.21.56-.226.858-.497l.704-.64c.282-.257.43-.36.624-.71.18-.33.438-.542.625-.712.417-.38-1.022-.213-1.64-.213-.16 0 .28-.637.313-.78.094-.43.214-.405.624-.5.587-.132.625.136.625.57 0 .29.47-.43.546-.71.108-.39.366-.558.703-.71.332-.152.7-.25.937-.357.415-.188.405-.16.312-.497-.057-.207.058-.64 0-.852-.124-.45.504-.078.234-.568-.116-.213-.8-.365-.936-.426-.39-.178-.74-.124-1.093-.285-.42-.192-.343-.327-.078-.57.148-.135.966.043 1.092.072.37.084.765.07 1.17.07.524 0 .82.02 1.25.214.322.147.234.432.234.853 0 .462-.138.678.312.78.546.125.66.03 1.014-.213.146-.1 1.143-.193 1.25-.213.42-.076.66-.245.858-.426.284-.26.66-.46.858-.64.292-.265.567-.342.937-.426.476-.108.672.185.86.355.187.172.077.75.077.995 0 .22 1.428-.33 1.483-.355.418-.19.677-.12.936-.355.366-.332.122-.56.704-.427.443.1.713-.127 1.092-.213.41-.093.313-.34.313-.782v-1.065c0-.502-.314-.41-.704-.498-.32-.073-.765.13-.936.285-.335.304-.424.193-.547.64-.114.416-.163.464-.546.638-.184.084-.526-.355-.937-.355-.443 0-.613-.243-.858-.355-.345-.157-.614-.213-1.093-.213-.175 0-.43.417-.782.497-.315.072-.912 0-1.014 0-.322 0 .372-.773.39-.78.432-.198.965.037.078-.286-.346-.126-.826.07-1.17.07-.57 0-.625.078-.625.57 0 .484-.29.426-.78.426-.304 0-.175-.643-.47-.71-.484-.11-.44.312-.623-.356-.072-.262-.65.023-.86.214-.23.21-.74-.08-.155-.214.5-.114-.25-.568-.547-.568-.52 0-.44.32-.703.64-.26.316-.646.078-.78.568-.07.248-.603.31-.86.426-.388.177-.682.347-1.014.498-.485.22-1.08.142-1.64.142-.29 0 .157.516.157.78v1.067c0 .58-.083.446-.624.57-.294.066-.516-.285-.938-.285-.514 0-.624.224-.624.64 0 .455-.43.196-.78.355-.43.196-.78.286-.78-.213 0-.377-.435-.42-.782-.498-.506-.116-.516.34-.858.497-.386.175-.8.115-1.17.284-.102.047-.316-.515-.547-.567-.4-.092-.95.056-1.326.142-.452.103-.224.426-.78.426-.425 0-.788.11-1.015.214-.213.096.35.426-.548.426-.573 0-.654.055-.858.427-.232.42-.046.56-.703.71-.196.045-.573.458-.623.64-.083.302-1.045.26-.312.426.393.09.732.113 1.17.213.378.086.844.242 1.093.356.258.117.942-.037 1.093-.072.387-.087.362-.226.86 0 .302.138.255.508.546.64.276.126 1.106.07 1.405.07.073 0 .133.91.157.996.057.21.155.637.234.923.026.09.75.397.86.497.216.197.505.292.78.355.448.102.627.073.86.284.238.22-.05.637.077.924z"/></g><path class="border" d="M211 493v55l36 45M0 425h144l67 68h86l53 54v46"/><path class="territoryborder" d="M559.776 593v-77.33h122.24V593m-49.243-77.33V593m-72.997-35.474h122.24m-84.122-.913v37.123"/><title>Atlanta</title><circle class="circle" cx="702.292" cy="380.552" id="atlanta" r="14"/><title>Austin</title><circle class="circle" cx="461.692" cy="467.552" id="austin" r="14"/><title>Birmingham</title><circle class="circle" cx="655.692" cy="402.152" id="birmingham" r="14"/><title>Charlotte</title><circle class="circle" cx="772.092" cy="334.152" id="charlotte" r="14"/><title>Chattanooga</title><circle class="circle" cx="676.692" cy="347.952" id="chattanooga" r="14"/><title>Cincinnati</title><circle class="circle" cx="682.292" cy="262.552" id="cincinnati" r="14"/><title>Cleveland</title><circle class="circle" cx="723.292" cy="215.152" id="cleveland" r="14"/><title>Columbia</title><circle class="circle" cx="768.292" cy="374.552" id="columbia" r="14"/><title>Columbus</title><circle class="circle" cx="703.092" cy="243.552" id="columbus" r="14"/><title>Dallas</title><circle class="circle" cx="470.092" cy="420.552" id="dallas" r="14"/><title>Davenport</title><circle class="circle" cx="560.292" cy="224.552" id="davenport" r="14"/><title>Greenville</title><circle class="circle" cx="743.692" cy="356.552" id="greenville" r="14"/><title>Houston</title><circle class="circle" cx="493.692" cy="484.152" id="houston" r="14"/><title>Huntsville</title><circle class="circle" cx="655.292" cy="375.552" id="huntsville" r="14"/><title>Indianapolis</title><circle class="circle" cx="645.292" cy="258.952" id="indianapolis" r="14"/><g><title>Jacksonville</title><circle class="circle" cx="756.692" cy="453.552" id="jacksonville" r="14"/></g><g><title>Kansas City</title><circle class="circle" cx="518.692" cy="291.152" id="kansascity" r="14"/></g><g><title>Knoxville</title><circle class="circle" cx="695.092" cy="332.152" id="knoxville" r="14"/></g><g><title>Memphis</title><circle class="circle" cx="605.692" cy="347.552" id="memphis" r="14"/></g><g><title>Milwaukee</title><circle class="circle" cx="605.692" cy="181.152" id="milwaukee" r="14"/></g><g><title>Minneapolis</title><circle class="circle" cx="515.066" cy="140.824" id="minneapolis" r="14"/></g><g><title>Nashville</title><circle class="circle" cx="637.092" cy="336.152" id="nashville" r="14"/></g><g><title>Oklahoma City</title><circle class="circle" cx="463.692" cy="365.552" id="oklahomacity" r="14"/></g><g><title>Orlando</title><circle class="circle" cx="764.092" cy="482.552" id="orlando" r="14"/></g><g><title>Pittsburgh</title><circle class="circle" cx="761.292" cy="223.552" id="pittsburgh" r="14"/></g><g><title>Raleigh-Durham</title><circle class="circle" cx="805.092" cy="321.152" id="raleigh-durham" r="14"/></g><g><title>San Antonio</title><circle class="circle" cx="441.292" cy="492.952" id="sanantonio" r="14"/></g><g><title>Southern California</title><circle class="circle" cx="108.292" cy="342.552" id="southerncalifornia" r="14"/></g><g><title>Tampa</title><circle class="circle" cx="750.092" cy="499.152" id="tampa" r="14"/></g></svg>